# xmcd
# 
# Track frame offsets:
#     150
#     52572
#     82165
#     118655
#     163300
#     208415
#     221970
# 
# Disc length: 3394
# 
# Revision: 1
# Processed by: cddbd v1.5.2PL0 Copyright (c) Steve Scherf et al.
# Submitted via: BonkEnc v1.0.8
# 
DISCID=6a0d4007
DTITLE=Lennar Åberg, Bobo Stenson, Palle Danielsson, Peter Erskine - 7 Pieces
DYEAR=2000
DGENRE=Contemporary Jazz
TTITLE0=Spiral Staircase
TTITLE1=The Don
TTITLE2=4
TTITLE3=Lena's Tune
TTITLE4=Scale Etudes
TTITLE5=Ornette Or Not
TTITLE6=Chris-chros
EXTD=YEAR: 2000
EXTT0=
EXTT1=
EXTT2=
EXTT3=
EXTT4=
EXTT5=
EXTT6=
PLAYORDER=
